<?xml version="1.0" encoding="utf-8" standalone="no"?>
<!DOCTYPE svg PUBLIC "-//W3C//DTD SVG 1.1//EN"
  "http://www.w3.org/Graphics/SVG/1.1/DTD/svg11.dtd">
<svg xmlns:xlink="http://www.w3.org/1999/xlink" width="528.2pt" height="69.84pt" viewBox="0 0 528.2 69.84" xmlns="http://www.w3.org/2000/svg" version="1.1">
 <metadata>
  <rdf:RDF xmlns:dc="http://purl.org/dc/elements/1.1/" xmlns:cc="http://creativecommons.org/ns#" xmlns:rdf="http://www.w3.org/1999/02/22-rdf-syntax-ns#">
   <cc:Work>
    <dc:type rdf:resource="http://purl.org/dc/dcmitype/StillImage"/>
    <dc:date>2024-12-18T10:07:34.577677</dc:date>
    <dc:format>image/svg+xml</dc:format>
    <dc:creator>
     <cc:Agent>
      <dc:title>Matplotlib v3.9.3, https://matplotlib.org/</dc:title>
     </cc:Agent>
    </dc:creator>
   </cc:Work>
  </rdf:RDF>
 </metadata>
 <defs>
  <style type="text/css">*{stroke-linejoin: round; stroke-linecap: butt}</style>
 </defs>
 <g id="figure_1">
  <g id="patch_1">
   <path d="M 0 69.84 
L 528.2 69.84 
L 528.2 0 
L 0 0 
z
" style="fill: #ffffff"/>
  </g>
  <g id="axes_1">
   <g id="text_1">
    <!-- ${ \Omega^{2 \times 2 \prime} x = (\Omega^2 )^{2 \prime} x = ( \Omega^2 )^{1+1 \prime} x = \Omega^{2 \prime} \Omega^{2 \prime} x = \Omega^{1 + 1 \prime} \Omega^{1 + 1 \prime} x }$ -->
    <g transform="translate(7.2 41.260625) scale(0.2 -0.2)">
     <defs>
      <path id="DejaVuSans-3a9" d="M 4647 556 
L 4647 0 
L 2772 0 
L 2772 556 
Q 3325 859 3634 1378 
Q 3944 1897 3944 2528 
Q 3944 3278 3531 3731 
Q 3119 4184 2444 4184 
Q 1769 4184 1355 3729 
Q 941 3275 941 2528 
Q 941 1897 1250 1378 
Q 1563 859 2119 556 
L 2119 0 
L 244 0 
L 244 556 
L 1241 556 
Q 747 991 519 1456 
Q 294 1922 294 2497 
Q 294 3491 894 4106 
Q 1491 4722 2444 4722 
Q 3391 4722 3994 4106 
Q 4594 3494 4594 2528 
Q 4594 1922 4372 1459 
Q 4150 997 3647 556 
L 4647 556 
z
" transform="scale(0.015625)"/>
      <path id="DejaVuSans-32" d="M 1228 531 
L 3431 531 
L 3431 0 
L 469 0 
L 469 531 
Q 828 903 1448 1529 
Q 2069 2156 2228 2338 
Q 2531 2678 2651 2914 
Q 2772 3150 2772 3378 
Q 2772 3750 2511 3984 
Q 2250 4219 1831 4219 
Q 1534 4219 1204 4116 
Q 875 4013 500 3803 
L 500 4441 
Q 881 4594 1212 4672 
Q 1544 4750 1819 4750 
Q 2544 4750 2975 4387 
Q 3406 4025 3406 3419 
Q 3406 3131 3298 2873 
Q 3191 2616 2906 2266 
Q 2828 2175 2409 1742 
Q 1991 1309 1228 531 
z
" transform="scale(0.015625)"/>
      <path id="DejaVuSans-d7" d="M 4488 3438 
L 3059 2003 
L 4488 575 
L 4116 197 
L 2681 1631 
L 1247 197 
L 878 575 
L 2303 2003 
L 878 3438 
L 1247 3816 
L 2681 2381 
L 4116 3816 
L 4488 3438 
z
" transform="scale(0.015625)"/>
      <path id="Cmsy10-30" d="M 225 347 
Q 184 359 184 409 
L 966 3316 
Q 1003 3434 1093 3506 
Q 1184 3578 1300 3578 
Q 1450 3578 1564 3479 
Q 1678 3381 1678 3231 
Q 1678 3166 1644 3084 
L 488 319 
Q 466 275 428 275 
Q 394 275 320 306 
Q 247 338 225 347 
z
" transform="scale(0.015625)"/>
      <path id="DejaVuSans-Oblique-78" d="M 3841 3500 
L 2234 1784 
L 3219 0 
L 2559 0 
L 1819 1388 
L 531 0 
L -166 0 
L 1556 1844 
L 641 3500 
L 1300 3500 
L 1972 2234 
L 3144 3500 
L 3841 3500 
z
" transform="scale(0.015625)"/>
      <path id="DejaVuSans-3d" d="M 678 2906 
L 4684 2906 
L 4684 2381 
L 678 2381 
L 678 2906 
z
M 678 1631 
L 4684 1631 
L 4684 1100 
L 678 1100 
L 678 1631 
z
" transform="scale(0.015625)"/>
      <path id="DejaVuSans-28" d="M 1984 4856 
Q 1566 4138 1362 3434 
Q 1159 2731 1159 2009 
Q 1159 1288 1364 580 
Q 1569 -128 1984 -844 
L 1484 -844 
Q 1016 -109 783 600 
Q 550 1309 550 2009 
Q 550 2706 781 3412 
Q 1013 4119 1484 4856 
L 1984 4856 
z
" transform="scale(0.015625)"/>
      <path id="DejaVuSans-29" d="M 513 4856 
L 1013 4856 
Q 1481 4119 1714 3412 
Q 1947 2706 1947 2009 
Q 1947 1309 1714 600 
Q 1481 -109 1013 -844 
L 513 -844 
Q 928 -128 1133 580 
Q 1338 1288 1338 2009 
Q 1338 2731 1133 3434 
Q 928 4138 513 4856 
z
" transform="scale(0.015625)"/>
      <path id="DejaVuSans-31" d="M 794 531 
L 1825 531 
L 1825 4091 
L 703 3866 
L 703 4441 
L 1819 4666 
L 2450 4666 
L 2450 531 
L 3481 531 
L 3481 0 
L 794 0 
L 794 531 
z
" transform="scale(0.015625)"/>
      <path id="DejaVuSans-2b" d="M 2944 4013 
L 2944 2272 
L 4684 2272 
L 4684 1741 
L 2944 1741 
L 2944 0 
L 2419 0 
L 2419 1741 
L 678 1741 
L 678 2272 
L 2419 2272 
L 2419 4013 
L 2944 4013 
z
" transform="scale(0.015625)"/>
     </defs>
     <use xlink:href="#DejaVuSans-3a9" transform="translate(0 0.765625)"/>
     <use xlink:href="#DejaVuSans-32" transform="translate(77.373047 39.046875) scale(0.7)"/>
     <use xlink:href="#DejaVuSans-d7" transform="translate(135.546875 39.046875) scale(0.7)"/>
     <use xlink:href="#DejaVuSans-32" transform="translate(207.836914 39.046875) scale(0.7)"/>
     <use xlink:href="#Cmsy10-30" transform="translate(252.373047 39.046875) scale(0.7)"/>
     <use xlink:href="#DejaVuSans-Oblique-78" transform="translate(274.350586 0.765625)"/>
     <use xlink:href="#DejaVuSans-3d" transform="translate(353.012695 0.765625)"/>
     <use xlink:href="#DejaVuSans-28" transform="translate(456.28418 0.765625)"/>
     <use xlink:href="#DejaVuSans-3a9" transform="translate(495.297852 0.765625)"/>
     <use xlink:href="#DejaVuSans-32" transform="translate(572.670898 39.046875) scale(0.7)"/>
     <use xlink:href="#DejaVuSans-29" transform="translate(619.941406 0.765625)"/>
     <use xlink:href="#DejaVuSans-32" transform="translate(659.912109 39.046875) scale(0.7)"/>
     <use xlink:href="#Cmsy10-30" transform="translate(704.448242 39.046875) scale(0.7)"/>
     <use xlink:href="#DejaVuSans-Oblique-78" transform="translate(726.425781 0.765625)"/>
     <use xlink:href="#DejaVuSans-3d" transform="translate(805.087891 0.765625)"/>
     <use xlink:href="#DejaVuSans-28" transform="translate(908.359375 0.765625)"/>
     <use xlink:href="#DejaVuSans-3a9" transform="translate(947.373047 0.765625)"/>
     <use xlink:href="#DejaVuSans-32" transform="translate(1024.746094 39.046875) scale(0.7)"/>
     <use xlink:href="#DejaVuSans-29" transform="translate(1072.016602 0.765625)"/>
     <use xlink:href="#DejaVuSans-31" transform="translate(1111.987305 39.046875) scale(0.7)"/>
     <use xlink:href="#DejaVuSans-2b" transform="translate(1170.161133 39.046875) scale(0.7)"/>
     <use xlink:href="#DejaVuSans-31" transform="translate(1242.451172 39.046875) scale(0.7)"/>
     <use xlink:href="#Cmsy10-30" transform="translate(1286.987305 39.046875) scale(0.7)"/>
     <use xlink:href="#DejaVuSans-Oblique-78" transform="translate(1308.964844 0.765625)"/>
     <use xlink:href="#DejaVuSans-3d" transform="translate(1387.626953 0.765625)"/>
     <use xlink:href="#DejaVuSans-3a9" transform="translate(1490.898438 0.765625)"/>
     <use xlink:href="#DejaVuSans-32" transform="translate(1568.271484 39.046875) scale(0.7)"/>
     <use xlink:href="#Cmsy10-30" transform="translate(1612.807617 39.046875) scale(0.7)"/>
     <use xlink:href="#DejaVuSans-3a9" transform="translate(1634.785156 0.765625)"/>
     <use xlink:href="#DejaVuSans-32" transform="translate(1712.158203 39.046875) scale(0.7)"/>
     <use xlink:href="#Cmsy10-30" transform="translate(1756.694336 39.046875) scale(0.7)"/>
     <use xlink:href="#DejaVuSans-Oblique-78" transform="translate(1778.671875 0.765625)"/>
     <use xlink:href="#DejaVuSans-3d" transform="translate(1857.333984 0.765625)"/>
     <use xlink:href="#DejaVuSans-3a9" transform="translate(1960.605469 0.765625)"/>
     <use xlink:href="#DejaVuSans-31" transform="translate(2037.978516 39.046875) scale(0.7)"/>
     <use xlink:href="#DejaVuSans-2b" transform="translate(2096.152344 39.046875) scale(0.7)"/>
     <use xlink:href="#DejaVuSans-31" transform="translate(2168.442383 39.046875) scale(0.7)"/>
     <use xlink:href="#Cmsy10-30" transform="translate(2212.978516 39.046875) scale(0.7)"/>
     <use xlink:href="#DejaVuSans-3a9" transform="translate(2234.956055 0.765625)"/>
     <use xlink:href="#DejaVuSans-31" transform="translate(2312.329102 39.046875) scale(0.7)"/>
     <use xlink:href="#DejaVuSans-2b" transform="translate(2370.50293 39.046875) scale(0.7)"/>
     <use xlink:href="#DejaVuSans-31" transform="translate(2442.792969 39.046875) scale(0.7)"/>
     <use xlink:href="#Cmsy10-30" transform="translate(2487.329102 39.046875) scale(0.7)"/>
     <use xlink:href="#DejaVuSans-Oblique-78" transform="translate(2509.306641 0.765625)"/>
    </g>
   </g>
  </g>
 </g>
</svg>
