<?xml version="1.0" encoding="utf-8" standalone="no"?>
<!DOCTYPE svg PUBLIC "-//W3C//DTD SVG 1.1//EN"
  "http://www.w3.org/Graphics/SVG/1.1/DTD/svg11.dtd">
<svg xmlns:xlink="http://www.w3.org/1999/xlink" width="425.8pt" height="69.84pt" viewBox="0 0 425.8 69.84" xmlns="http://www.w3.org/2000/svg" version="1.1">
 <metadata>
  <rdf:RDF xmlns:dc="http://purl.org/dc/elements/1.1/" xmlns:cc="http://creativecommons.org/ns#" xmlns:rdf="http://www.w3.org/1999/02/22-rdf-syntax-ns#">
   <cc:Work>
    <dc:type rdf:resource="http://purl.org/dc/dcmitype/StillImage"/>
    <dc:date>2024-12-18T10:07:17.055001</dc:date>
    <dc:format>image/svg+xml</dc:format>
    <dc:creator>
     <cc:Agent>
      <dc:title>Matplotlib v3.9.3, https://matplotlib.org/</dc:title>
     </cc:Agent>
    </dc:creator>
   </cc:Work>
  </rdf:RDF>
 </metadata>
 <defs>
  <style type="text/css">*{stroke-linejoin: round; stroke-linecap: butt}</style>
 </defs>
 <g id="figure_1">
  <g id="patch_1">
   <path d="M 0 69.84 
L 425.8 69.84 
L 425.8 0 
L 0 0 
z
" style="fill: #ffffff"/>
  </g>
  <g id="axes_1">
   <g id="text_1">
    <!-- ${ \Omega^{0 \prime} x, \Omega^{0+1 \prime} x, \Omega^{0 + 1 + 1 \prime} x, \Omega^{0 + 1 + 1 + 1 \prime} x, ..... }$ -->
    <g transform="translate(7.2 41.060625) scale(0.2 -0.2)">
     <defs>
      <path id="DejaVuSans-3a9" d="M 4647 556 
L 4647 0 
L 2772 0 
L 2772 556 
Q 3325 859 3634 1378 
Q 3944 1897 3944 2528 
Q 3944 3278 3531 3731 
Q 3119 4184 2444 4184 
Q 1769 4184 1355 3729 
Q 941 3275 941 2528 
Q 941 1897 1250 1378 
Q 1563 859 2119 556 
L 2119 0 
L 244 0 
L 244 556 
L 1241 556 
Q 747 991 519 1456 
Q 294 1922 294 2497 
Q 294 3491 894 4106 
Q 1491 4722 2444 4722 
Q 3391 4722 3994 4106 
Q 4594 3494 4594 2528 
Q 4594 1922 4372 1459 
Q 4150 997 3647 556 
L 4647 556 
z
" transform="scale(0.015625)"/>
      <path id="DejaVuSans-30" d="M 2034 4250 
Q 1547 4250 1301 3770 
Q 1056 3291 1056 2328 
Q 1056 1369 1301 889 
Q 1547 409 2034 409 
Q 2525 409 2770 889 
Q 3016 1369 3016 2328 
Q 3016 3291 2770 3770 
Q 2525 4250 2034 4250 
z
M 2034 4750 
Q 2819 4750 3233 4129 
Q 3647 3509 3647 2328 
Q 3647 1150 3233 529 
Q 2819 -91 2034 -91 
Q 1250 -91 836 529 
Q 422 1150 422 2328 
Q 422 3509 836 4129 
Q 1250 4750 2034 4750 
z
" transform="scale(0.015625)"/>
      <path id="Cmsy10-30" d="M 225 347 
Q 184 359 184 409 
L 966 3316 
Q 1003 3434 1093 3506 
Q 1184 3578 1300 3578 
Q 1450 3578 1564 3479 
Q 1678 3381 1678 3231 
Q 1678 3166 1644 3084 
L 488 319 
Q 466 275 428 275 
Q 394 275 320 306 
Q 247 338 225 347 
z
" transform="scale(0.015625)"/>
      <path id="DejaVuSans-Oblique-78" d="M 3841 3500 
L 2234 1784 
L 3219 0 
L 2559 0 
L 1819 1388 
L 531 0 
L -166 0 
L 1556 1844 
L 641 3500 
L 1300 3500 
L 1972 2234 
L 3144 3500 
L 3841 3500 
z
" transform="scale(0.015625)"/>
      <path id="DejaVuSans-2c" d="M 750 794 
L 1409 794 
L 1409 256 
L 897 -744 
L 494 -744 
L 750 256 
L 750 794 
z
" transform="scale(0.015625)"/>
      <path id="DejaVuSans-2b" d="M 2944 4013 
L 2944 2272 
L 4684 2272 
L 4684 1741 
L 2944 1741 
L 2944 0 
L 2419 0 
L 2419 1741 
L 678 1741 
L 678 2272 
L 2419 2272 
L 2419 4013 
L 2944 4013 
z
" transform="scale(0.015625)"/>
      <path id="DejaVuSans-31" d="M 794 531 
L 1825 531 
L 1825 4091 
L 703 3866 
L 703 4441 
L 1819 4666 
L 2450 4666 
L 2450 531 
L 3481 531 
L 3481 0 
L 794 0 
L 794 531 
z
" transform="scale(0.015625)"/>
      <path id="DejaVuSans-2e" d="M 684 794 
L 1344 794 
L 1344 0 
L 684 0 
L 684 794 
z
" transform="scale(0.015625)"/>
     </defs>
     <use xlink:href="#DejaVuSans-3a9" transform="translate(0 0.765625)"/>
     <use xlink:href="#DejaVuSans-30" transform="translate(77.373047 39.046875) scale(0.7)"/>
     <use xlink:href="#Cmsy10-30" transform="translate(121.90918 39.046875) scale(0.7)"/>
     <use xlink:href="#DejaVuSans-Oblique-78" transform="translate(143.886719 0.765625)"/>
     <use xlink:href="#DejaVuSans-2c" transform="translate(203.066406 0.765625)"/>
     <use xlink:href="#DejaVuSans-3a9" transform="translate(254.335938 0.765625)"/>
     <use xlink:href="#DejaVuSans-30" transform="translate(331.708984 39.046875) scale(0.7)"/>
     <use xlink:href="#DejaVuSans-2b" transform="translate(389.882812 39.046875) scale(0.7)"/>
     <use xlink:href="#DejaVuSans-31" transform="translate(462.172852 39.046875) scale(0.7)"/>
     <use xlink:href="#Cmsy10-30" transform="translate(506.708984 39.046875) scale(0.7)"/>
     <use xlink:href="#DejaVuSans-Oblique-78" transform="translate(528.686523 0.765625)"/>
     <use xlink:href="#DejaVuSans-2c" transform="translate(587.866211 0.765625)"/>
     <use xlink:href="#DejaVuSans-3a9" transform="translate(639.135742 0.765625)"/>
     <use xlink:href="#DejaVuSans-30" transform="translate(716.508789 39.046875) scale(0.7)"/>
     <use xlink:href="#DejaVuSans-2b" transform="translate(774.682617 39.046875) scale(0.7)"/>
     <use xlink:href="#DejaVuSans-31" transform="translate(846.972656 39.046875) scale(0.7)"/>
     <use xlink:href="#DejaVuSans-2b" transform="translate(905.146484 39.046875) scale(0.7)"/>
     <use xlink:href="#DejaVuSans-31" transform="translate(977.436523 39.046875) scale(0.7)"/>
     <use xlink:href="#Cmsy10-30" transform="translate(1021.972656 39.046875) scale(0.7)"/>
     <use xlink:href="#DejaVuSans-Oblique-78" transform="translate(1043.950195 0.765625)"/>
     <use xlink:href="#DejaVuSans-2c" transform="translate(1103.129883 0.765625)"/>
     <use xlink:href="#DejaVuSans-3a9" transform="translate(1154.399414 0.765625)"/>
     <use xlink:href="#DejaVuSans-30" transform="translate(1231.772461 39.046875) scale(0.7)"/>
     <use xlink:href="#DejaVuSans-2b" transform="translate(1289.946289 39.046875) scale(0.7)"/>
     <use xlink:href="#DejaVuSans-31" transform="translate(1362.236328 39.046875) scale(0.7)"/>
     <use xlink:href="#DejaVuSans-2b" transform="translate(1420.410156 39.046875) scale(0.7)"/>
     <use xlink:href="#DejaVuSans-31" transform="translate(1492.700195 39.046875) scale(0.7)"/>
     <use xlink:href="#DejaVuSans-2b" transform="translate(1550.874023 39.046875) scale(0.7)"/>
     <use xlink:href="#DejaVuSans-31" transform="translate(1623.164062 39.046875) scale(0.7)"/>
     <use xlink:href="#Cmsy10-30" transform="translate(1667.700195 39.046875) scale(0.7)"/>
     <use xlink:href="#DejaVuSans-Oblique-78" transform="translate(1689.677734 0.765625)"/>
     <use xlink:href="#DejaVuSans-2c" transform="translate(1748.857422 0.765625)"/>
     <use xlink:href="#DejaVuSans-2e" transform="translate(1800.126953 0.765625)"/>
     <use xlink:href="#DejaVuSans-2e" transform="translate(1851.396484 0.765625)"/>
     <use xlink:href="#DejaVuSans-2e" transform="translate(1902.666016 0.765625)"/>
     <use xlink:href="#DejaVuSans-2e" transform="translate(1953.935547 0.765625)"/>
     <use xlink:href="#DejaVuSans-2e" transform="translate(2005.205078 0.765625)"/>
    </g>
   </g>
  </g>
 </g>
</svg>
