<?xml version="1.0" encoding="utf-8" standalone="no"?>
<!DOCTYPE svg PUBLIC "-//W3C//DTD SVG 1.1//EN"
  "http://www.w3.org/Graphics/SVG/1.1/DTD/svg11.dtd">
<svg xmlns:xlink="http://www.w3.org/1999/xlink" width="237.6pt" height="69.84pt" viewBox="0 0 237.6 69.84" xmlns="http://www.w3.org/2000/svg" version="1.1">
 <metadata>
  <rdf:RDF xmlns:dc="http://purl.org/dc/elements/1.1/" xmlns:cc="http://creativecommons.org/ns#" xmlns:rdf="http://www.w3.org/1999/02/22-rdf-syntax-ns#">
   <cc:Work>
    <dc:type rdf:resource="http://purl.org/dc/dcmitype/StillImage"/>
    <dc:date>2024-12-18T10:07:12.909374</dc:date>
    <dc:format>image/svg+xml</dc:format>
    <dc:creator>
     <cc:Agent>
      <dc:title>Matplotlib v3.9.3, https://matplotlib.org/</dc:title>
     </cc:Agent>
    </dc:creator>
   </cc:Work>
  </rdf:RDF>
 </metadata>
 <defs>
  <style type="text/css">*{stroke-linejoin: round; stroke-linecap: butt}</style>
 </defs>
 <g id="figure_1">
  <g id="patch_1">
   <path d="M 0 69.84 
L 237.6 69.84 
L 237.6 0 
L 0 0 
z
" style="fill: #ffffff"/>
  </g>
  <g id="axes_1">
   <g id="text_1">
    <!-- ${ 0 = \widehat{\hat{u}(\phi u)} \{(x)\sim \phi x\} }$ -->
    <g transform="translate(21.8 46.02) scale(0.2 -0.2)">
     <defs>
      <path id="DejaVuSans-30" d="M 2034 4250 
Q 1547 4250 1301 3770 
Q 1056 3291 1056 2328 
Q 1056 1369 1301 889 
Q 1547 409 2034 409 
Q 2525 409 2770 889 
Q 3016 1369 3016 2328 
Q 3016 3291 2770 3770 
Q 2525 4250 2034 4250 
z
M 2034 4750 
Q 2819 4750 3233 4129 
Q 3647 3509 3647 2328 
Q 3647 1150 3233 529 
Q 2819 -91 2034 -91 
Q 1250 -91 836 529 
Q 422 1150 422 2328 
Q 422 3509 836 4129 
Q 1250 4750 2034 4750 
z
" transform="scale(0.015625)"/>
      <path id="DejaVuSans-3d" d="M 678 2906 
L 4684 2906 
L 4684 2381 
L 678 2381 
L 678 2906 
z
M 678 1631 
L 4684 1631 
L 4684 1100 
L 678 1100 
L 678 1631 
z
" transform="scale(0.015625)"/>
      <path id="STIXSizeFiveSym-Regular-302" d="M -1005 3859 
L -1037 3661 
L -8461 4826 
L -15872 3661 
L -15904 3859 
L -8454 5222 
L -1005 3859 
z
" transform="scale(0.015625)"/>
      <path id="DejaVuSans-302" d="M -1831 5119 
L -1369 5119 
L -603 3944 
L -1038 3944 
L -1600 4709 
L -2163 3944 
L -2597 3944 
L -1831 5119 
z
M -1600 3584 
L -1600 3584 
z
" transform="scale(0.015625)"/>
      <path id="DejaVuSans-Oblique-75" d="M 428 1388 
L 838 3500 
L 1416 3500 
L 1006 1409 
Q 975 1256 961 1147 
Q 947 1038 947 966 
Q 947 700 1109 554 
Q 1272 409 1569 409 
Q 2031 409 2368 721 
Q 2706 1034 2809 1563 
L 3194 3500 
L 3769 3500 
L 3091 0 
L 2516 0 
L 2631 550 
Q 2388 244 2052 76 
Q 1716 -91 1338 -91 
Q 878 -91 622 161 
Q 366 413 366 863 
Q 366 956 381 1097 
Q 397 1238 428 1388 
z
" transform="scale(0.015625)"/>
      <path id="DejaVuSans-28" d="M 1984 4856 
Q 1566 4138 1362 3434 
Q 1159 2731 1159 2009 
Q 1159 1288 1364 580 
Q 1569 -128 1984 -844 
L 1484 -844 
Q 1016 -109 783 600 
Q 550 1309 550 2009 
Q 550 2706 781 3412 
Q 1013 4119 1484 4856 
L 1984 4856 
z
" transform="scale(0.015625)"/>
      <path id="DejaVuSans-Oblique-3d5" d="M 2991 4863 
L 2738 3572 
Q 3363 3572 3684 3094 
Q 4016 2606 3850 1747 
Q 3681 888 3159 400 
Q 2653 -78 2028 -78 
L 1784 -1331 
L 1213 -1331 
L 1456 -78 
Q 834 -78 509 400 
Q 178 888 347 1747 
Q 513 2606 1034 3094 
Q 1544 3572 2166 3572 
L 2419 4863 
L 2991 4863 
z
M 2128 434 
Q 2481 434 2784 756 
Q 3116 1116 3244 1747 
Q 3369 2372 3169 2738 
Q 2991 3059 2638 3059 
L 2128 434 
z
M 1556 434 
L 2066 3059 
Q 1716 3059 1413 2738 
Q 1072 2372 953 1747 
Q 834 1116 1028 756 
Q 1203 434 1556 434 
z
" transform="scale(0.015625)"/>
      <path id="DejaVuSans-29" d="M 513 4856 
L 1013 4856 
Q 1481 4119 1714 3412 
Q 1947 2706 1947 2009 
Q 1947 1309 1714 600 
Q 1481 -109 1013 -844 
L 513 -844 
Q 928 -128 1133 580 
Q 1338 1288 1338 2009 
Q 1338 2731 1133 3434 
Q 928 4138 513 4856 
z
" transform="scale(0.015625)"/>
      <path id="DejaVuSans-7b" d="M 3272 -594 
L 3272 -1044 
L 3078 -1044 
Q 2300 -1044 2036 -812 
Q 1772 -581 1772 109 
L 1772 856 
Q 1772 1328 1603 1509 
Q 1434 1691 991 1691 
L 800 1691 
L 800 2138 
L 991 2138 
Q 1438 2138 1605 2317 
Q 1772 2497 1772 2963 
L 1772 3713 
Q 1772 4403 2036 4633 
Q 2300 4863 3078 4863 
L 3272 4863 
L 3272 4416 
L 3059 4416 
Q 2619 4416 2484 4278 
Q 2350 4141 2350 3700 
L 2350 2925 
Q 2350 2434 2208 2212 
Q 2066 1991 1722 1913 
Q 2069 1828 2209 1606 
Q 2350 1384 2350 897 
L 2350 122 
Q 2350 -319 2484 -456 
Q 2619 -594 3059 -594 
L 3272 -594 
z
" transform="scale(0.015625)"/>
      <path id="DejaVuSans-Oblique-78" d="M 3841 3500 
L 2234 1784 
L 3219 0 
L 2559 0 
L 1819 1388 
L 531 0 
L -166 0 
L 1556 1844 
L 641 3500 
L 1300 3500 
L 1972 2234 
L 3144 3500 
L 3841 3500 
z
" transform="scale(0.015625)"/>
      <path id="DejaVuSans-223c" d="M 4684 2556 
L 4684 1997 
Q 4356 1753 4076 1645 
Q 3797 1538 3494 1538 
Q 3150 1538 2694 1722 
Q 2663 1734 2641 1744 
Q 2622 1750 2575 1769 
Q 2091 1959 1797 1959 
Q 1522 1959 1253 1840 
Q 984 1722 678 1459 
L 678 2019 
Q 1006 2263 1286 2370 
Q 1566 2478 1869 2478 
Q 2213 2478 2672 2294 
Q 2706 2278 2722 2272 
Q 2741 2266 2788 2247 
Q 3272 2056 3566 2056 
Q 3834 2056 4098 2173 
Q 4363 2291 4684 2556 
z
" transform="scale(0.015625)"/>
      <path id="DejaVuSans-7d" d="M 800 -594 
L 1019 -594 
Q 1456 -594 1589 -459 
Q 1722 -325 1722 122 
L 1722 897 
Q 1722 1384 1862 1606 
Q 2003 1828 2350 1913 
Q 2003 1991 1862 2212 
Q 1722 2434 1722 2925 
L 1722 3700 
Q 1722 4144 1589 4280 
Q 1456 4416 1019 4416 
L 800 4416 
L 800 4863 
L 997 4863 
Q 1775 4863 2036 4633 
Q 2297 4403 2297 3713 
L 2297 2963 
Q 2297 2497 2465 2317 
Q 2634 2138 3078 2138 
L 3272 2138 
L 3272 1691 
L 3078 1691 
Q 2634 1691 2465 1509 
Q 2297 1328 2297 856 
L 2297 109 
Q 2297 -581 2036 -812 
Q 1775 -1044 997 -1044 
L 800 -1044 
L 800 -594 
z
" transform="scale(0.015625)"/>
     </defs>
     <use xlink:href="#DejaVuSans-30" transform="translate(0 0.03125)"/>
     <use xlink:href="#DejaVuSans-3d" transform="translate(83.105469 0.03125)"/>
     <use xlink:href="#STIXSizeFiveSym-Regular-302" transform="translate(508.939941 37.34375) scale(1.163039)"/>
     <use xlink:href="#DejaVuSans-302" transform="translate(250.799805 11.21875)"/>
     <use xlink:href="#DejaVuSans-Oblique-75" transform="translate(186.376953 0.03125)"/>
     <use xlink:href="#DejaVuSans-28" transform="translate(249.755859 0.03125)"/>
     <use xlink:href="#DejaVuSans-Oblique-3d5" transform="translate(288.769531 0.03125)"/>
     <use xlink:href="#DejaVuSans-Oblique-75" transform="translate(354.736328 0.03125)"/>
     <use xlink:href="#DejaVuSans-29" transform="translate(418.115234 0.03125)"/>
     <use xlink:href="#DejaVuSans-7b" transform="translate(457.128906 0.03125)"/>
     <use xlink:href="#DejaVuSans-28" transform="translate(520.751953 0.03125)"/>
     <use xlink:href="#DejaVuSans-Oblique-78" transform="translate(559.765625 0.03125)"/>
     <use xlink:href="#DejaVuSans-29" transform="translate(618.945312 0.03125)"/>
     <use xlink:href="#DejaVuSans-223c" transform="translate(677.441406 0.03125)"/>
     <use xlink:href="#DejaVuSans-Oblique-3d5" transform="translate(780.712891 0.03125)"/>
     <use xlink:href="#DejaVuSans-Oblique-78" transform="translate(846.679688 0.03125)"/>
     <use xlink:href="#DejaVuSans-7d" transform="translate(905.859375 0.03125)"/>
    </g>
   </g>
  </g>
 </g>
</svg>
