<?xml version="1.0" encoding="utf-8" standalone="no"?>
<!DOCTYPE svg PUBLIC "-//W3C//DTD SVG 1.1//EN"
  "http://www.w3.org/Graphics/SVG/1.1/DTD/svg11.dtd">
<svg xmlns:xlink="http://www.w3.org/1999/xlink" width="237.6pt" height="69.84pt" viewBox="0 0 237.6 69.84" xmlns="http://www.w3.org/2000/svg" version="1.1">
 <metadata>
  <rdf:RDF xmlns:dc="http://purl.org/dc/elements/1.1/" xmlns:cc="http://creativecommons.org/ns#" xmlns:rdf="http://www.w3.org/1999/02/22-rdf-syntax-ns#">
   <cc:Work>
    <dc:type rdf:resource="http://purl.org/dc/dcmitype/StillImage"/>
    <dc:date>2024-12-18T10:06:29.481819</dc:date>
    <dc:format>image/svg+xml</dc:format>
    <dc:creator>
     <cc:Agent>
      <dc:title>Matplotlib v3.9.3, https://matplotlib.org/</dc:title>
     </cc:Agent>
    </dc:creator>
   </cc:Work>
  </rdf:RDF>
 </metadata>
 <defs>
  <style type="text/css">*{stroke-linejoin: round; stroke-linecap: butt}</style>
 </defs>
 <g id="figure_1">
  <g id="patch_1">
   <path d="M 0 69.84 
L 237.6 69.84 
L 237.6 0 
L 0 0 
z
" style="fill: #ffffff"/>
  </g>
  <g id="axes_1">
   <g id="text_1">
    <!-- ${ 1 + \frac{x}{1!} + \frac{x^2}{2!} + ... }$ -->
    <g transform="translate(40.4 41.62) scale(0.2 -0.2)">
     <defs>
      <path id="DejaVuSans-31" d="M 794 531 
L 1825 531 
L 1825 4091 
L 703 3866 
L 703 4441 
L 1819 4666 
L 2450 4666 
L 2450 531 
L 3481 531 
L 3481 0 
L 794 0 
L 794 531 
z
" transform="scale(0.015625)"/>
      <path id="DejaVuSans-2b" d="M 2944 4013 
L 2944 2272 
L 4684 2272 
L 4684 1741 
L 2944 1741 
L 2944 0 
L 2419 0 
L 2419 1741 
L 678 1741 
L 678 2272 
L 2419 2272 
L 2419 4013 
L 2944 4013 
z
" transform="scale(0.015625)"/>
      <path id="DejaVuSans-Oblique-78" d="M 3841 3500 
L 2234 1784 
L 3219 0 
L 2559 0 
L 1819 1388 
L 531 0 
L -166 0 
L 1556 1844 
L 641 3500 
L 1300 3500 
L 1972 2234 
L 3144 3500 
L 3841 3500 
z
" transform="scale(0.015625)"/>
      <path id="DejaVuSans-21" d="M 966 794 
L 1600 794 
L 1600 0 
L 966 0 
L 966 794 
z
M 966 4666 
L 1600 4666 
L 1600 2619 
L 1538 1503 
L 1031 1503 
L 966 2619 
L 966 4666 
z
" transform="scale(0.015625)"/>
      <path id="DejaVuSans-32" d="M 1228 531 
L 3431 531 
L 3431 0 
L 469 0 
L 469 531 
Q 828 903 1448 1529 
Q 2069 2156 2228 2338 
Q 2531 2678 2651 2914 
Q 2772 3150 2772 3378 
Q 2772 3750 2511 3984 
Q 2250 4219 1831 4219 
Q 1534 4219 1204 4116 
Q 875 4013 500 3803 
L 500 4441 
Q 881 4594 1212 4672 
Q 1544 4750 1819 4750 
Q 2544 4750 2975 4387 
Q 3406 4025 3406 3419 
Q 3406 3131 3298 2873 
Q 3191 2616 2906 2266 
Q 2828 2175 2409 1742 
Q 1991 1309 1228 531 
z
" transform="scale(0.015625)"/>
      <path id="DejaVuSans-2e" d="M 684 794 
L 1344 794 
L 1344 0 
L 684 0 
L 684 794 
z
" transform="scale(0.015625)"/>
     </defs>
     <use xlink:href="#DejaVuSans-31" transform="translate(0 0.039062)"/>
     <use xlink:href="#DejaVuSans-2b" transform="translate(83.105469 0.039062)"/>
     <use xlink:href="#DejaVuSans-Oblique-78" transform="translate(208.376953 43.835938) scale(0.7)"/>
     <use xlink:href="#DejaVuSans-31" transform="translate(186.376953 -38.448438) scale(0.7)"/>
     <use xlink:href="#DejaVuSans-21" transform="translate(230.913086 -38.448438) scale(0.7)"/>
     <use xlink:href="#DejaVuSans-2b" transform="translate(304.594727 0.039062)"/>
     <use xlink:href="#DejaVuSans-Oblique-78" transform="translate(411.866211 43.835938) scale(0.7)"/>
     <use xlink:href="#DejaVuSans-32" transform="translate(456.418294 70.632812) scale(0.49)"/>
     <use xlink:href="#DejaVuSans-32" transform="translate(407.866211 -39.367188) scale(0.7)"/>
     <use xlink:href="#DejaVuSans-21" transform="translate(452.402344 -39.367188) scale(0.7)"/>
     <use xlink:href="#DejaVuSans-2b" transform="translate(526.083984 0.039062)"/>
     <use xlink:href="#DejaVuSans-2e" transform="translate(629.355469 0.039062)"/>
     <use xlink:href="#DejaVuSans-2e" transform="translate(680.625 0.039062)"/>
     <use xlink:href="#DejaVuSans-2e" transform="translate(731.894531 0.039062)"/>
     <path d="M 186.376953 18.835938 
L 186.376953 25.085938 
L 272.612305 25.085938 
L 272.612305 18.835938 
L 186.376953 18.835938 
z
"/>
     <path d="M 407.866211 18.835938 
L 407.866211 25.085938 
L 494.101562 25.085938 
L 494.101562 18.835938 
L 407.866211 18.835938 
z
"/>
    </g>
   </g>
  </g>
 </g>
</svg>
