<?xml version="1.0" encoding="utf-8" standalone="no"?>
<!DOCTYPE svg PUBLIC "-//W3C//DTD SVG 1.1//EN"
  "http://www.w3.org/Graphics/SVG/1.1/DTD/svg11.dtd">
<svg xmlns:xlink="http://www.w3.org/1999/xlink" width="612.6pt" height="69.84pt" viewBox="0 0 612.6 69.84" xmlns="http://www.w3.org/2000/svg" version="1.1">
 <metadata>
  <rdf:RDF xmlns:dc="http://purl.org/dc/elements/1.1/" xmlns:cc="http://creativecommons.org/ns#" xmlns:rdf="http://www.w3.org/1999/02/22-rdf-syntax-ns#">
   <cc:Work>
    <dc:type rdf:resource="http://purl.org/dc/dcmitype/StillImage"/>
    <dc:date>2024-12-18T10:06:28.574681</dc:date>
    <dc:format>image/svg+xml</dc:format>
    <dc:creator>
     <cc:Agent>
      <dc:title>Matplotlib v3.9.3, https://matplotlib.org/</dc:title>
     </cc:Agent>
    </dc:creator>
   </cc:Work>
  </rdf:RDF>
 </metadata>
 <defs>
  <style type="text/css">*{stroke-linejoin: round; stroke-linecap: butt}</style>
 </defs>
 <g id="figure_1">
  <g id="patch_1">
   <path d="M 0 69.84 
L 612.6 69.84 
L 612.6 0 
L 0 0 
z
" style="fill: #ffffff"/>
  </g>
  <g id="axes_1">
   <g id="text_1">
    <!-- ${ 1 = \hat{\alpha} \{ ( \exists \phi ) :: (\exists x) . \phi x : \phi y . \phi z . -&gt; _{y,z} y = z : \alpha = \hat{u}( \phi u)\} \text{ Def.} }$ -->
    <g transform="translate(7.2 41.12) scale(0.2 -0.2)">
     <defs>
      <path id="DejaVuSans-31" d="M 794 531 
L 1825 531 
L 1825 4091 
L 703 3866 
L 703 4441 
L 1819 4666 
L 2450 4666 
L 2450 531 
L 3481 531 
L 3481 0 
L 794 0 
L 794 531 
z
" transform="scale(0.015625)"/>
      <path id="DejaVuSans-3d" d="M 678 2906 
L 4684 2906 
L 4684 2381 
L 678 2381 
L 678 2906 
z
M 678 1631 
L 4684 1631 
L 4684 1100 
L 678 1100 
L 678 1631 
z
" transform="scale(0.015625)"/>
      <path id="DejaVuSans-302" d="M -1831 5119 
L -1369 5119 
L -603 3944 
L -1038 3944 
L -1600 4709 
L -2163 3944 
L -2597 3944 
L -1831 5119 
z
M -1600 3584 
L -1600 3584 
z
" transform="scale(0.015625)"/>
      <path id="DejaVuSans-Oblique-3b1" d="M 2619 1628 
L 2622 2350 
Q 2625 3088 2069 3091 
Q 1653 3094 1394 2747 
Q 1069 2319 959 1747 
Q 825 1059 994 731 
Q 1169 397 1547 397 
Q 1966 397 2319 1063 
L 2619 1628 
z
M 2166 3578 
Q 3141 3594 3128 2584 
Q 3128 2584 3616 3500 
L 4128 3500 
L 3119 1603 
L 3109 919 
Q 3109 766 3194 638 
Q 3291 488 3391 488 
L 3669 488 
L 3575 0 
L 3228 0 
Q 2934 0 2722 263 
Q 2622 394 2619 669 
Q 2416 334 2066 50 
Q 1900 -81 1453 -78 
Q 722 -72 456 397 
Q 184 884 353 1747 
Q 534 2675 1009 3097 
Q 1544 3569 2166 3578 
z
" transform="scale(0.015625)"/>
      <path id="DejaVuSans-7b" d="M 3272 -594 
L 3272 -1044 
L 3078 -1044 
Q 2300 -1044 2036 -812 
Q 1772 -581 1772 109 
L 1772 856 
Q 1772 1328 1603 1509 
Q 1434 1691 991 1691 
L 800 1691 
L 800 2138 
L 991 2138 
Q 1438 2138 1605 2317 
Q 1772 2497 1772 2963 
L 1772 3713 
Q 1772 4403 2036 4633 
Q 2300 4863 3078 4863 
L 3272 4863 
L 3272 4416 
L 3059 4416 
Q 2619 4416 2484 4278 
Q 2350 4141 2350 3700 
L 2350 2925 
Q 2350 2434 2208 2212 
Q 2066 1991 1722 1913 
Q 2069 1828 2209 1606 
Q 2350 1384 2350 897 
L 2350 122 
Q 2350 -319 2484 -456 
Q 2619 -594 3059 -594 
L 3272 -594 
z
" transform="scale(0.015625)"/>
      <path id="DejaVuSans-28" d="M 1984 4856 
Q 1566 4138 1362 3434 
Q 1159 2731 1159 2009 
Q 1159 1288 1364 580 
Q 1569 -128 1984 -844 
L 1484 -844 
Q 1016 -109 783 600 
Q 550 1309 550 2009 
Q 550 2706 781 3412 
Q 1013 4119 1484 4856 
L 1984 4856 
z
" transform="scale(0.015625)"/>
      <path id="DejaVuSans-2203" d="M 3634 4666 
L 3634 0 
L 628 0 
L 628 531 
L 3003 531 
L 3003 2069 
L 628 2069 
L 628 2600 
L 3003 2600 
L 3003 4134 
L 628 4134 
L 628 4666 
L 3634 4666 
z
" transform="scale(0.015625)"/>
      <path id="DejaVuSans-Oblique-3d5" d="M 2991 4863 
L 2738 3572 
Q 3363 3572 3684 3094 
Q 4016 2606 3850 1747 
Q 3681 888 3159 400 
Q 2653 -78 2028 -78 
L 1784 -1331 
L 1213 -1331 
L 1456 -78 
Q 834 -78 509 400 
Q 178 888 347 1747 
Q 513 2606 1034 3094 
Q 1544 3572 2166 3572 
L 2419 4863 
L 2991 4863 
z
M 2128 434 
Q 2481 434 2784 756 
Q 3116 1116 3244 1747 
Q 3369 2372 3169 2738 
Q 2991 3059 2638 3059 
L 2128 434 
z
M 1556 434 
L 2066 3059 
Q 1716 3059 1413 2738 
Q 1072 2372 953 1747 
Q 834 1116 1028 756 
Q 1203 434 1556 434 
z
" transform="scale(0.015625)"/>
      <path id="DejaVuSans-29" d="M 513 4856 
L 1013 4856 
Q 1481 4119 1714 3412 
Q 1947 2706 1947 2009 
Q 1947 1309 1714 600 
Q 1481 -109 1013 -844 
L 513 -844 
Q 928 -128 1133 580 
Q 1338 1288 1338 2009 
Q 1338 2731 1133 3434 
Q 928 4138 513 4856 
z
" transform="scale(0.015625)"/>
      <path id="DejaVuSans-a0" transform="scale(0.015625)"/>
      <path id="DejaVuSans-3a" d="M 750 794 
L 1409 794 
L 1409 0 
L 750 0 
L 750 794 
z
M 750 3309 
L 1409 3309 
L 1409 2516 
L 750 2516 
L 750 3309 
z
" transform="scale(0.015625)"/>
      <path id="DejaVuSans-Oblique-78" d="M 3841 3500 
L 2234 1784 
L 3219 0 
L 2559 0 
L 1819 1388 
L 531 0 
L -166 0 
L 1556 1844 
L 641 3500 
L 1300 3500 
L 1972 2234 
L 3144 3500 
L 3841 3500 
z
" transform="scale(0.015625)"/>
      <path id="DejaVuSans-2e" d="M 684 794 
L 1344 794 
L 1344 0 
L 684 0 
L 684 794 
z
" transform="scale(0.015625)"/>
      <path id="DejaVuSans-Oblique-79" d="M 1588 -325 
Q 1188 -997 936 -1164 
Q 684 -1331 294 -1331 
L -159 -1331 
L -63 -850 
L 269 -850 
Q 509 -850 678 -719 
Q 847 -588 1056 -206 
L 1234 128 
L 459 3500 
L 1069 3500 
L 1650 819 
L 3256 3500 
L 3859 3500 
L 1588 -325 
z
" transform="scale(0.015625)"/>
      <path id="DejaVuSans-Oblique-7a" d="M 744 3500 
L 3475 3500 
L 3372 2975 
L 738 459 
L 2913 459 
L 2822 0 
L -19 0 
L 84 525 
L 2719 3041 
L 653 3041 
L 744 3500 
z
" transform="scale(0.015625)"/>
      <path id="DejaVuSans-2212" d="M 678 2272 
L 4684 2272 
L 4684 1741 
L 678 1741 
L 678 2272 
z
" transform="scale(0.015625)"/>
      <path id="DejaVuSans-3e" d="M 678 3150 
L 678 3719 
L 4684 2266 
L 4684 1747 
L 678 294 
L 678 863 
L 3897 2003 
L 678 3150 
z
" transform="scale(0.015625)"/>
      <path id="DejaVuSans-2c" d="M 750 794 
L 1409 794 
L 1409 256 
L 897 -744 
L 494 -744 
L 750 256 
L 750 794 
z
" transform="scale(0.015625)"/>
      <path id="DejaVuSans-Oblique-75" d="M 428 1388 
L 838 3500 
L 1416 3500 
L 1006 1409 
Q 975 1256 961 1147 
Q 947 1038 947 966 
Q 947 700 1109 554 
Q 1272 409 1569 409 
Q 2031 409 2368 721 
Q 2706 1034 2809 1563 
L 3194 3500 
L 3769 3500 
L 3091 0 
L 2516 0 
L 2631 550 
Q 2388 244 2052 76 
Q 1716 -91 1338 -91 
Q 878 -91 622 161 
Q 366 413 366 863 
Q 366 956 381 1097 
Q 397 1238 428 1388 
z
" transform="scale(0.015625)"/>
      <path id="DejaVuSans-7d" d="M 800 -594 
L 1019 -594 
Q 1456 -594 1589 -459 
Q 1722 -325 1722 122 
L 1722 897 
Q 1722 1384 1862 1606 
Q 2003 1828 2350 1913 
Q 2003 1991 1862 2212 
Q 1722 2434 1722 2925 
L 1722 3700 
Q 1722 4144 1589 4280 
Q 1456 4416 1019 4416 
L 800 4416 
L 800 4863 
L 997 4863 
Q 1775 4863 2036 4633 
Q 2297 4403 2297 3713 
L 2297 2963 
Q 2297 2497 2465 2317 
Q 2634 2138 3078 2138 
L 3272 2138 
L 3272 1691 
L 3078 1691 
Q 2634 1691 2465 1509 
Q 2297 1328 2297 856 
L 2297 109 
Q 2297 -581 2036 -812 
Q 1775 -1044 997 -1044 
L 800 -1044 
L 800 -594 
z
" transform="scale(0.015625)"/>
      <path id="DejaVuSans-20" transform="scale(0.015625)"/>
      <path id="DejaVuSans-44" d="M 1259 4147 
L 1259 519 
L 2022 519 
Q 2988 519 3436 956 
Q 3884 1394 3884 2338 
Q 3884 3275 3436 3711 
Q 2988 4147 2022 4147 
L 1259 4147 
z
M 628 4666 
L 1925 4666 
Q 3281 4666 3915 4102 
Q 4550 3538 4550 2338 
Q 4550 1131 3912 565 
Q 3275 0 1925 0 
L 628 0 
L 628 4666 
z
" transform="scale(0.015625)"/>
      <path id="DejaVuSans-65" d="M 3597 1894 
L 3597 1613 
L 953 1613 
Q 991 1019 1311 708 
Q 1631 397 2203 397 
Q 2534 397 2845 478 
Q 3156 559 3463 722 
L 3463 178 
Q 3153 47 2828 -22 
Q 2503 -91 2169 -91 
Q 1331 -91 842 396 
Q 353 884 353 1716 
Q 353 2575 817 3079 
Q 1281 3584 2069 3584 
Q 2775 3584 3186 3129 
Q 3597 2675 3597 1894 
z
M 3022 2063 
Q 3016 2534 2758 2815 
Q 2500 3097 2075 3097 
Q 1594 3097 1305 2825 
Q 1016 2553 972 2059 
L 3022 2063 
z
" transform="scale(0.015625)"/>
      <path id="DejaVuSans-66" d="M 2375 4863 
L 2375 4384 
L 1825 4384 
Q 1516 4384 1395 4259 
Q 1275 4134 1275 3809 
L 1275 3500 
L 2222 3500 
L 2222 3053 
L 1275 3053 
L 1275 0 
L 697 0 
L 697 3053 
L 147 3053 
L 147 3500 
L 697 3500 
L 697 3744 
Q 697 4328 969 4595 
Q 1241 4863 1831 4863 
L 2375 4863 
z
" transform="scale(0.015625)"/>
     </defs>
     <use xlink:href="#DejaVuSans-31" transform="translate(0 0.359375)"/>
     <use xlink:href="#DejaVuSans-3d" transform="translate(83.105469 0.359375)"/>
     <use xlink:href="#DejaVuSans-302" transform="translate(252.43457 13.015625)"/>
     <use xlink:href="#DejaVuSans-Oblique-3b1" transform="translate(186.376953 0.359375)"/>
     <use xlink:href="#DejaVuSans-7b" transform="translate(252.294922 0.359375)"/>
     <use xlink:href="#DejaVuSans-28" transform="translate(315.917969 0.359375)"/>
     <use xlink:href="#DejaVuSans-2203" transform="translate(354.931641 0.359375)"/>
     <use xlink:href="#DejaVuSans-Oblique-3d5" transform="translate(418.115234 0.359375)"/>
     <use xlink:href="#DejaVuSans-29" transform="translate(484.082031 0.359375)"/>
     <use xlink:href="#DejaVuSans-a0" transform="translate(523.095703 0.359375)"/>
     <use xlink:href="#DejaVuSans-3a" transform="translate(574.365234 0.359375)"/>
     <use xlink:href="#DejaVuSans-3a" transform="translate(647.021484 0.359375)"/>
     <use xlink:href="#DejaVuSans-28" transform="translate(700.195312 0.359375)"/>
     <use xlink:href="#DejaVuSans-2203" transform="translate(739.208984 0.359375)"/>
     <use xlink:href="#DejaVuSans-Oblique-78" transform="translate(802.392578 0.359375)"/>
     <use xlink:href="#DejaVuSans-29" transform="translate(861.572266 0.359375)"/>
     <use xlink:href="#DejaVuSans-2e" transform="translate(900.585938 0.359375)"/>
     <use xlink:href="#DejaVuSans-Oblique-3d5" transform="translate(951.855469 0.359375)"/>
     <use xlink:href="#DejaVuSans-Oblique-78" transform="translate(1017.822266 0.359375)"/>
     <use xlink:href="#DejaVuSans-a0" transform="translate(1077.001953 0.359375)"/>
     <use xlink:href="#DejaVuSans-3a" transform="translate(1128.271484 0.359375)"/>
     <use xlink:href="#DejaVuSans-Oblique-3d5" transform="translate(1181.445312 0.359375)"/>
     <use xlink:href="#DejaVuSans-Oblique-79" transform="translate(1247.412109 0.359375)"/>
     <use xlink:href="#DejaVuSans-2e" transform="translate(1306.591797 0.359375)"/>
     <use xlink:href="#DejaVuSans-Oblique-3d5" transform="translate(1357.861328 0.359375)"/>
     <use xlink:href="#DejaVuSans-Oblique-7a" transform="translate(1423.828125 0.359375)"/>
     <use xlink:href="#DejaVuSans-2e" transform="translate(1476.318359 0.359375)"/>
     <use xlink:href="#DejaVuSans-2212" transform="translate(1547.070312 0.359375)"/>
     <use xlink:href="#DejaVuSans-3e" transform="translate(1669.824219 0.359375)"/>
     <use xlink:href="#DejaVuSans-Oblique-79" transform="translate(1774.052734 -16.046875) scale(0.7)"/>
     <use xlink:href="#DejaVuSans-2c" transform="translate(1815.478516 -16.046875) scale(0.7)"/>
     <use xlink:href="#DejaVuSans-Oblique-7a" transform="translate(1851.367188 -16.046875) scale(0.7)"/>
     <use xlink:href="#DejaVuSans-Oblique-79" transform="translate(1890.844727 0.359375)"/>
     <use xlink:href="#DejaVuSans-3d" transform="translate(1969.506836 0.359375)"/>
     <use xlink:href="#DejaVuSans-Oblique-7a" transform="translate(2072.77832 0.359375)"/>
     <use xlink:href="#DejaVuSans-a0" transform="translate(2125.268555 0.359375)"/>
     <use xlink:href="#DejaVuSans-3a" transform="translate(2176.538086 0.359375)"/>
     <use xlink:href="#DejaVuSans-Oblique-3b1" transform="translate(2229.711914 0.359375)"/>
     <use xlink:href="#DejaVuSans-3d" transform="translate(2315.112305 0.359375)"/>
     <use xlink:href="#DejaVuSans-302" transform="translate(2482.806641 11.546875)"/>
     <use xlink:href="#DejaVuSans-Oblique-75" transform="translate(2418.383789 0.359375)"/>
     <use xlink:href="#DejaVuSans-28" transform="translate(2481.762695 0.359375)"/>
     <use xlink:href="#DejaVuSans-Oblique-3d5" transform="translate(2520.776367 0.359375)"/>
     <use xlink:href="#DejaVuSans-Oblique-75" transform="translate(2586.743164 0.359375)"/>
     <use xlink:href="#DejaVuSans-29" transform="translate(2650.12207 0.359375)"/>
     <use xlink:href="#DejaVuSans-7d" transform="translate(2689.135742 0.359375)"/>
     <use xlink:href="#DejaVuSans-20" transform="translate(2752.758789 0.359375)"/>
     <use xlink:href="#DejaVuSans-44" transform="translate(2784.545898 0.359375)"/>
     <use xlink:href="#DejaVuSans-65" transform="translate(2861.547852 0.359375)"/>
     <use xlink:href="#DejaVuSans-66" transform="translate(2923.071289 0.359375)"/>
     <use xlink:href="#DejaVuSans-2e" transform="translate(2958.276367 0.359375)"/>
    </g>
   </g>
  </g>
 </g>
</svg>
